<mxfile host="65bd71144e">
    <diagram id="Zphku5AM_jrOAezdSDCR" name="第 1 页">
        <mxGraphModel dx="2014" dy="1404" grid="1" gridSize="10" guides="1" tooltips="1" connect="1" arrows="1" fold="1" page="1" pageScale="1" pageWidth="827" pageHeight="1169" math="0" shadow="0">
            <root>
                <mxCell id="0"/>
                <mxCell id="1" parent="0"/>
                <mxCell id="4" value="" style="edgeStyle=none;html=1;fontSize=18;fontStyle=1;startArrow=classic;startFill=1;endArrow=none;endFill=0;" parent="1" source="2" target="3" edge="1">
                    <mxGeometry relative="1" as="geometry"/>
                </mxCell>
                <mxCell id="2" value="C0" style="rounded=1;whiteSpace=wrap;html=1;fillColor=#fff2cc;strokeColor=#d6b656;fontSize=18;fontStyle=1" parent="1" vertex="1">
                    <mxGeometry x="50" y="340" width="100" height="50" as="geometry"/>
                </mxCell>
                <mxCell id="6" value="" style="edgeStyle=none;html=1;fontSize=18;fontStyle=1;startArrow=classic;startFill=1;endArrow=none;endFill=0;" parent="1" source="3" target="5" edge="1">
                    <mxGeometry relative="1" as="geometry"/>
                </mxCell>
                <mxCell id="3" value="C1" style="rounded=1;whiteSpace=wrap;html=1;fillColor=#fff2cc;strokeColor=#d6b656;fontSize=18;fontStyle=1" parent="1" vertex="1">
                    <mxGeometry x="230" y="340" width="100" height="50" as="geometry"/>
                </mxCell>
                <mxCell id="21" value="" style="edgeStyle=none;html=1;startArrow=classic;startFill=1;endArrow=none;endFill=0;" parent="1" source="5" target="20" edge="1">
                    <mxGeometry relative="1" as="geometry"/>
                </mxCell>
                <mxCell id="5" value="C2" style="rounded=1;whiteSpace=wrap;html=1;fillColor=#fff2cc;strokeColor=#d6b656;fontSize=18;fontStyle=1" parent="1" vertex="1">
                    <mxGeometry x="410" y="340" width="100" height="50" as="geometry"/>
                </mxCell>
                <mxCell id="18" value="master" style="rounded=1;whiteSpace=wrap;html=1;fillColor=#e51400;strokeColor=#B20000;fontColor=#ffffff;fontSize=18;fontStyle=1" parent="1" vertex="1">
                    <mxGeometry x="600" y="245" width="100" height="50" as="geometry"/>
                </mxCell>
                <mxCell id="20" value="C4" style="rounded=1;whiteSpace=wrap;html=1;fillColor=#fff2cc;strokeColor=#d6b656;fontSize=18;fontStyle=1" parent="1" vertex="1">
                    <mxGeometry x="600" y="340" width="100" height="50" as="geometry"/>
                </mxCell>
                <mxCell id="22" value="" style="endArrow=classic;html=1;exitX=0.5;exitY=1;exitDx=0;exitDy=0;" parent="1" source="18" target="20" edge="1">
                    <mxGeometry width="50" height="50" relative="1" as="geometry">
                        <mxPoint x="352" y="530" as="sourcePoint"/>
                        <mxPoint x="402" y="480" as="targetPoint"/>
                    </mxGeometry>
                </mxCell>
                <mxCell id="29" value="" style="edgeStyle=none;html=1;" edge="1" parent="1" source="25" target="18">
                    <mxGeometry relative="1" as="geometry"/>
                </mxCell>
                <mxCell id="25" value="HEAD" style="rounded=1;whiteSpace=wrap;html=1;fillColor=#e3c800;strokeColor=#B09500;fontColor=#000000;fontSize=18;fontStyle=1" parent="1" vertex="1">
                    <mxGeometry x="600" y="140" width="100" height="50" as="geometry"/>
                </mxCell>
                <mxCell id="28" value="" style="edgeStyle=none;html=1;" edge="1" parent="1" source="27" target="20">
                    <mxGeometry relative="1" as="geometry"/>
                </mxCell>
                <mxCell id="27" value="bug_fix" style="rounded=1;whiteSpace=wrap;html=1;fillColor=#e51400;strokeColor=#B20000;fontColor=#ffffff;fontSize=18;fontStyle=1" vertex="1" parent="1">
                    <mxGeometry x="600" y="445" width="100" height="50" as="geometry"/>
                </mxCell>
            </root>
        </mxGraphModel>
    </diagram>
</mxfile>